<svg viewBox="0 0 466.16 98.03" xmlns:xlink="http://www.w3.org/1999/xlink" xmlns="http://www.w3.org/2000/svg" id="Layer_2">
  <defs>
    <style>
      .cls-1 {
        fill: url(#linear-gradient-13);
      }

      .cls-2 {
        clip-path: url(#clippath-21);
      }

      .cls-3 {
        clip-path: url(#clippath-6);
      }

      .cls-4 {
        clip-path: url(#clippath-7);
      }

      .cls-5 {
        clip-path: url(#clippath-17);
      }

      .cls-6 {
        clip-path: url(#clippath-15);
      }

      .cls-7 {
        clip-path: url(#clippath-18);
      }

      .cls-8 {
        clip-path: url(#clippath-4);
      }

      .cls-9 {
        fill: url(#linear-gradient-2);
      }

      .cls-10 {
        mask: url(#mask-1);
      }

      .cls-11 {
        fill: url(#linear-gradient-10);
      }

      .cls-12 {
        fill: url(#linear-gradient-12);
      }

      .cls-13 {
        clip-path: url(#clippath-9);
      }

      .cls-14 {
        clip-path: url(#clippath-10);
      }

      .cls-15 {
        fill: #fff;
      }

      .cls-16 {
        mask: url(#mask);
      }

      .cls-17 {
        clip-path: url(#clippath-11);
      }

      .cls-18 {
        fill: none;
      }

      .cls-19 {
        fill: url(#linear-gradient-4);
      }

      .cls-20 {
        mask: url(#mask-2);
      }

      .cls-21 {
        fill: url(#linear-gradient-3);
      }

      .cls-22 {
        clip-path: url(#clippath-1);
      }

      .cls-23 {
        fill: url(#linear-gradient-5);
      }

      .cls-24 {
        clip-path: url(#clippath-5);
      }

      .cls-25 {
        clip-path: url(#clippath-20);
      }

      .cls-26 {
        clip-path: url(#clippath-8);
      }

      .cls-27 {
        fill: url(#linear-gradient-8);
      }

      .cls-28 {
        clip-path: url(#clippath-3);
      }

      .cls-29 {
        clip-path: url(#clippath-12);
      }

      .cls-30 {
        fill: url(#linear-gradient-14);
      }

      .cls-31 {
        clip-path: url(#clippath-14);
      }

      .cls-32 {
        fill: url(#linear-gradient-7);
      }

      .cls-33 {
        clip-path: url(#clippath-19);
      }

      .cls-34 {
        fill: url(#linear-gradient-9);
      }

      .cls-35 {
        fill: url(#linear-gradient-11);
      }

      .cls-36 {
        fill: url(#linear-gradient-6);
      }

      .cls-37 {
        clip-path: url(#clippath-16);
      }

      .cls-38 {
        clip-path: url(#clippath-2);
      }

      .cls-39 {
        clip-path: url(#clippath-13);
      }

      .cls-40 {
        fill: url(#linear-gradient);
      }

      .cls-41 {
        clip-path: url(#clippath);
      }
    </style>
    <clipPath id="clippath">
      <path d="M122.47,25.32c-2.61,1.01-4.89,2.49-6.82,4.45-1.94,1.96-3.46,4.35-4.58,7.17-1.12,2.82-1.67,6.06-1.67,9.73s.48,6.91,1.45,9.73c.97,2.82,2.36,5.21,4.17,7.17,1.81,1.96,4.02,3.44,6.63,4.45,2.61,1.01,5.56,1.52,8.84,1.52,1.68,0,3.26-.1,4.74-.28s2.8-.44,3.98-.76c1.18-.32,2.2-.64,3.06-.98.86-.34,1.55-.67,2.05-1.01l-2.15-6.51c-.97.5-2.34,1.04-4.1,1.61-1.77.57-4.06.85-6.88.85-2.36,0-4.38-.39-6.06-1.17-1.68-.78-3.07-1.87-4.17-3.28-1.1-1.41-1.91-3.08-2.43-5.02-.53-1.94-.79-4.06-.79-6.38,0-2.61.34-4.9,1.01-6.88.68-1.98,1.61-3.62,2.81-4.93,1.2-1.31,2.62-2.28,4.26-2.94,1.64-.65,3.41-.98,5.31-.98,2.19,0,4.22.28,6.09.85,1.87.57,3.32,1.17,4.33,1.8l2.34-6.5c-.3-.17-.8-.44-1.52-.82-.72-.38-1.62-.74-2.72-1.07-1.09-.34-2.38-.64-3.85-.91-1.47-.27-3.12-.41-4.93-.41-2.99,0-5.79.51-8.4,1.52" class="cls-15"></path>
    </clipPath>
    <clipPath id="clippath-1">
      <path d="M158.47,19.58l-7.64,1.26v38.02c0,1.64.18,3.11.54,4.39.36,1.28.98,2.36,1.86,3.22.88.86,2.07,1.53,3.57,1.99,1.49.46,3.38.72,5.65.76l1.07-6.31c-1.01-.13-1.84-.3-2.5-.54-.65-.23-1.17-.57-1.55-1.01-.38-.44-.64-.98-.79-1.61-.15-.63-.22-1.41-.22-2.34V19.58Z" class="cls-15"></path>
    </clipPath>
    <clipPath id="clippath-2">
      <path d="M177.83,59.93c-1.41-1.94-2.12-4.57-2.12-7.89s.71-5.88,2.12-7.8c1.41-1.91,3.38-2.87,5.9-2.87s4.5.96,5.91,2.87c1.41,1.92,2.12,4.52,2.12,7.8s-.71,5.96-2.12,7.89c-1.41,1.94-3.38,2.9-5.91,2.9s-4.49-.97-5.9-2.9M177.35,35.97c-1.94.82-3.61,1.99-5.02,3.51-1.41,1.52-2.5,3.34-3.28,5.46-.78,2.13-1.17,4.5-1.17,7.11s.39,4.99,1.17,7.14c.78,2.15,1.86,3.98,3.25,5.49,1.39,1.52,3.05,2.69,4.99,3.54,1.94.84,4.08,1.26,6.44,1.26s4.52-.42,6.47-1.26,3.63-2.02,5.02-3.54c1.39-1.52,2.46-3.35,3.22-5.49.76-2.15,1.14-4.52,1.14-7.14s-.39-4.98-1.17-7.11c-.78-2.12-1.86-3.95-3.25-5.46-1.39-1.52-3.06-2.69-5.02-3.51-1.96-.82-4.09-1.23-6.41-1.23s-4.44.41-6.38,1.23" class="cls-15"></path>
    </clipPath>
    <clipPath id="clippath-3">
      <path d="M226.93,35.55v26.72c-.5.13-1.27.23-2.31.32-1.03.08-2.01.13-2.94.13-2.57,0-4.37-.76-5.4-2.27-1.03-1.51-1.55-4.04-1.55-7.58v-17.31h-7.64v18.5c0,2.23.23,4.28.69,6.16.46,1.87,1.23,3.48,2.31,4.83,1.08,1.35,2.51,2.4,4.29,3.16,1.79.76,4.01,1.14,6.66,1.14,2.82,0,5.41-.2,7.77-.6,2.36-.4,4.27-.79,5.75-1.17v-32.02h-7.64Z" class="cls-15"></path>
    </clipPath>
    <clipPath id="clippath-4">
      <path d="M252.69,59.9c-1.6-1.92-2.4-4.56-2.4-7.93s.64-5.81,1.93-7.7c1.28-1.9,3.32-2.84,6.09-2.84,1.26,0,2.45.2,3.57.6,1.12.4,2.01.83,2.68,1.3v18.95c-.55.13-1.25.24-2.12.35-.86.11-1.9.16-3.13.16-2.82,0-5.03-.96-6.63-2.87M272.21,19.58l-7.64,1.26v15.85c-.88-.46-1.94-.89-3.16-1.26-1.22-.38-2.63-.57-4.23-.57-2.36,0-4.44.41-6.25,1.23-1.81.82-3.35,1.99-4.61,3.51s-2.22,3.34-2.87,5.46c-.65,2.13-.98,4.5-.98,7.11s.39,5.04,1.17,7.17c.78,2.13,1.9,3.94,3.35,5.43,1.45,1.5,3.21,2.64,5.27,3.44,2.06.8,4.4,1.2,7.01,1.2s4.94-.19,7.23-.57c2.3-.38,4.2-.8,5.72-1.26V19.58Z" class="cls-15"></path>
    </clipPath>
    <clipPath id="clippath-5">
      <path d="M288.94,62.17c-1.14-.69-1.71-1.95-1.71-3.76,0-.93.21-1.69.63-2.31.42-.61.98-1.08,1.67-1.42.69-.34,1.47-.57,2.34-.69.86-.13,1.72-.19,2.56-.19.97,0,1.85.06,2.65.19.8.13,1.41.25,1.83.38v8.46c-1.22.25-3.01.38-5.37.38-1.94,0-3.47-.35-4.61-1.04M286.99,35.24c-1.85.34-3.26.67-4.23,1.01l.95,6.19c.93-.34,2.13-.63,3.6-.88,1.47-.25,3.09-.38,4.86-.38,1.3,0,2.39.17,3.25.51.86.34,1.56.81,2.08,1.42.53.61.89,1.32,1.11,2.12.21.8.32,1.64.32,2.53v1.26c-1.05-.25-2.04-.43-2.97-.54-.93-.1-1.81-.16-2.65-.16-1.81,0-3.55.18-5.21.54-1.66.36-3.13.95-4.39,1.77-1.26.82-2.26,1.88-3,3.19-.74,1.31-1.11,2.91-1.11,4.8s.33,3.64.98,4.99c.65,1.35,1.56,2.44,2.71,3.28,1.16.84,2.56,1.45,4.2,1.83,1.64.38,3.45.57,5.43.57,2.99,0,5.67-.18,8.05-.54,2.38-.36,4.16-.66,5.34-.92v-20.02c0-1.94-.22-3.72-.66-5.34-.44-1.62-1.18-3-2.21-4.14-1.03-1.14-2.41-2.02-4.14-2.65-1.73-.63-3.85-.95-6.38-.95-2.1,0-4.08.17-5.94.51" class="cls-15"></path>
    </clipPath>
    <clipPath id="clippath-6">
      <path d="M321.41,35.43c-2.36.38-4.27.78-5.75,1.2v31.96h7.64v-26.65c.51-.08,1.28-.19,2.34-.31,1.05-.13,2.06-.19,3.03-.19,1.31,0,2.41.18,3.32.54.9.36,1.62.93,2.15,1.71.53.78.91,1.79,1.14,3.03.23,1.24.35,2.75.35,4.52v17.37h7.64v-18.57c0-2.23-.22-4.28-.66-6.16-.44-1.87-1.2-3.47-2.27-4.8-1.07-1.33-2.52-2.36-4.32-3.09-1.81-.74-4.07-1.11-6.76-1.11-2.86,0-5.47.19-7.83.57" class="cls-15"></path>
    </clipPath>
    <clipPath id="clippath-7">
      <path d="M360.72,58.32c-1.41-1.49-2.12-3.86-2.12-7.11,0-2.99.74-5.4,2.21-7.23,1.47-1.83,3.6-2.75,6.38-2.75,1.22,0,2.23.05,3.03.16.8.1,1.47.22,2.02.35v17.11c-.67.46-1.55.86-2.62,1.2-1.07.34-2.22.5-3.44.5-2.23,0-4.05-.75-5.46-2.24M360.25,36.06c-2.02.8-3.74,1.92-5.15,3.35-1.41,1.43-2.48,3.16-3.22,5.18-.74,2.02-1.11,4.23-1.11,6.63,0,2.57.35,4.83,1.04,6.79.7,1.96,1.66,3.59,2.9,4.89,1.24,1.31,2.74,2.3,4.49,2.97,1.75.67,3.67,1.01,5.78,1.01,1.6,0,3.02-.19,4.26-.57,1.24-.38,2.24-.76,3-1.14v1.26c0,2.48-.65,4.36-1.96,5.62-1.3,1.26-3.49,1.89-6.57,1.89-1.94,0-3.74-.17-5.4-.51-1.66-.34-3.15-.78-4.45-1.33l-1.39,6.51c1.56.55,3.29.99,5.21,1.32,1.92.34,3.88.51,5.9.51,5.52,0,9.61-1.22,12.28-3.66,2.67-2.44,4.01-6.3,4.01-11.56v-28.61c-1.56-.42-3.45-.82-5.69-1.2-2.23-.38-4.59-.57-7.07-.57s-4.86.4-6.88,1.2" class="cls-15"></path>
    </clipPath>
    <clipPath id="clippath-8">
      <path d="M397.13,19.58l-7.64,1.26v38.02c0,1.64.18,3.11.54,4.39.36,1.28.98,2.36,1.86,3.22.88.86,2.07,1.53,3.57,1.99,1.49.46,3.38.72,5.65.76l1.07-6.31c-1.01-.13-1.84-.3-2.49-.54-.65-.23-1.17-.57-1.55-1.01s-.64-.98-.79-1.61c-.15-.63-.22-1.41-.22-2.34V19.58Z" class="cls-15"></path>
    </clipPath>
    <clipPath id="clippath-9">
      <path d="M415.19,45.97c.34-.92.81-1.75,1.42-2.46.61-.72,1.36-1.3,2.24-1.74.88-.44,1.92-.66,3.1-.66s2.12.2,2.94.6c.82.4,1.52.95,2.08,1.64.57.69,1,1.51,1.29,2.46.29.95.44,1.95.44,3h-14.21c.13-.97.36-1.92.7-2.84M416.2,35.84c-1.85.74-3.5,1.83-4.93,3.28-1.43,1.45-2.58,3.27-3.44,5.46-.86,2.19-1.3,4.74-1.3,7.64,0,2.48.34,4.77,1.01,6.85s1.71,3.9,3.1,5.43c1.39,1.54,3.16,2.74,5.3,3.6,2.15.86,4.67,1.3,7.58,1.3,1.14,0,2.25-.06,3.35-.19,1.09-.13,2.12-.28,3.06-.47.95-.19,1.79-.4,2.52-.63.74-.23,1.32-.45,1.74-.66l-1.01-6.25c-.88.38-2.09.74-3.63,1.07-1.54.34-3.23.5-5.08.5-3.16,0-5.57-.73-7.23-2.18-1.66-1.45-2.6-3.51-2.81-6.16h21.79c.04-.42.07-.89.1-1.42.02-.53.03-1,.03-1.42,0-5.6-1.27-9.81-3.82-12.63-2.55-2.82-6.1-4.23-10.64-4.23-1.94,0-3.83.37-5.68,1.11" class="cls-15"></path>
    </clipPath>
    <clipPath id="clippath-10">
      <path d="M445.95,37.35c-2.23,1.75-3.35,4.14-3.35,7.17,0,1.56.24,2.87.73,3.95.48,1.07,1.15,1.99,1.99,2.75.84.76,1.84,1.42,3,1.99,1.16.57,2.43,1.1,3.82,1.61,2.27.84,3.9,1.62,4.89,2.34.99.72,1.48,1.62,1.48,2.72,0,1.18-.46,2.01-1.39,2.49-.93.49-2.4.73-4.42.73s-3.82-.21-5.4-.63c-1.58-.42-2.94-.86-4.07-1.33l-1.33,6.38c.71.29,1.96.68,3.73,1.17,1.77.48,4.11.73,7.01.73,4.34,0,7.67-.81,10.01-2.43,2.34-1.62,3.51-4.01,3.51-7.17,0-1.47-.19-2.74-.57-3.79-.38-1.05-.98-1.99-1.8-2.81-.82-.82-1.86-1.56-3.12-2.21-1.26-.65-2.8-1.32-4.61-1.99-1.1-.38-2.02-.75-2.78-1.11-.76-.36-1.37-.71-1.83-1.07-.46-.36-.79-.75-.98-1.17-.19-.42-.28-.9-.28-1.45,0-1.1.48-1.9,1.45-2.43.97-.53,2.23-.79,3.79-.79,1.73,0,3.24.16,4.55.47,1.3.32,2.38.66,3.22,1.04l1.39-6.19c-.88-.34-2.21-.68-3.98-1.04-1.77-.36-3.62-.54-5.56-.54-3.83,0-6.86.88-9.09,2.62" class="cls-15"></path>
    </clipPath>
    <clipPath id="clippath-11">
      <path d="M66.87,46.93c-.08.02-.16.03-.24.05l-.29.06c-.11.02-.22.05-.32.07-.09.02-.18.04-.27.06h0c-.1.02-.2.04-.29.07-.19.04-.38.09-.57.13-.1.03-.21.05-.31.08-.08.02-.16.04-.24.06-.22.05-.43.11-.64.16-.08.02-.15.04-.23.06-1.29.34-2.56.72-3.82,1.14-.1.03-.19.06-.29.1-.28.1-.57.2-.85.3-.38.14-.75.28-1.12.43-.13.05-.25.1-.37.15-.12.05-.23.09-.35.14-.12.05-.23.09-.35.14-.2.08-.39.16-.59.25l.03.05,22.65,38.35c.45-.34.89-.69,1.33-1.04.02,0,.03-.02.04-.03.97-.79,1.9-1.62,2.81-2.48,0,0,.01,0,.02-.01.19-.17.37-.35.55-.53.03-.03.05-.05.08-.08.01-.01.03-.02.04-.04.06-.06.13-.12.19-.19l.05-.05c.06-.06.12-.11.17-.17,0,0,0,0,0,0l.08-.08.08-.08s.07-.07.1-.1c.09-.09.18-.18.26-.27.03-.03.06-.06.08-.09.1-.11.21-.22.31-.33.11-.12.23-.24.34-.37.02-.03.04-.05.06-.07.06-.07.12-.13.18-.2.09-.1.18-.2.27-.3.08-.1.17-.19.25-.29.09-.1.18-.2.26-.3.09-.1.17-.2.25-.3.15-.17.29-.35.43-.52.04-.05.09-.1.13-.16h0s.03-.04.05-.06c.11-.14.23-.29.35-.43.06-.07.11-.14.17-.21,0,0,0-.01.01-.02.06-.07.11-.14.16-.21.12-.15.23-.29.34-.44.06-.08.11-.15.17-.22.11-.15.22-.3.33-.45.06-.07.11-.15.16-.23.05-.07.11-.15.16-.23,0,0,0-.01.01-.02.13-.18.25-.36.38-.54.16-.23.32-.46.47-.69.08-.12.15-.23.23-.35,1.19-1.8,2.26-3.68,3.2-5.63t0,0c.31-.64.6-1.28.88-1.93,1.37-3.18,2.41-6.52,3.08-10.01h-12.09c-.35,1.37-.78,2.71-1.29,4.01-.89,2.31-2,4.5-3.31,6.56l-2.65-4.49-10.73-18.16-.02-.03s-.01,0-.02,0" class="cls-18"></path>
    </clipPath>
    <linearGradient gradientUnits="userSpaceOnUse" gradientTransform="translate(52143.15 22536.86) scale(41.24 -41.24)" y2="544.89" x2="-1262.17" y1="544.89" x1="-1263.17" id="linear-gradient">
      <stop stop-color="#ee691e" offset="0"></stop>
      <stop stop-color="#680fd2" offset="1"></stop>
    </linearGradient>
    <clipPath id="clippath-12">
      <path d="M42.76,28.4l-22.69,38.42c.24-.31.49-.61.74-.91,2.13-2.61,4.44-5.09,6.89-7.4,2.46-2.31,5.07-4.45,7.82-6.38,3.08-2.05,6.26-3.94,9.61-5.45l4.21-7.12,2.66,4.5c.46-.15.92-.29,1.38-.42.8-.23,1.6-.46,2.4-.65.11-.03.23-.06.34-.09,2.5-.59,5.02-1.03,7.54-1.32.01,0,.03,0,.04,0l-7.77-13.17-6.59-11.15-6.59,11.15Z" class="cls-18"></path>
    </clipPath>
    <linearGradient gradientUnits="userSpaceOnUse" gradientTransform="translate(55211.71 23792.27) scale(43.63 -43.63)" y2="544.31" x2="-1263.89" y1="544.31" x1="-1264.89" id="linear-gradient-2">
      <stop stop-color="#680fd2" offset="0"></stop>
      <stop stop-color="#ee691e" offset="1"></stop>
    </linearGradient>
    <clipPath id="clippath-13">
      <path d="M67.97,44.89c-.16.02-.32.03-.49.05-.16.02-.32.03-.49.05-.16.02-.32.04-.49.06-.16.02-.32.04-.48.06,0,0,0,0,0,0h0c-.07,0-.14.02-.22.03-.37.05-.73.1-1.09.15-.18.03-.36.05-.55.08-.18.03-.37.06-.55.09-.18.03-.36.06-.55.09-.14.02-.28.05-.42.07-.07.01-.13.02-.2.03-.04,0-.09.01-.13.02-.16.03-.33.06-.49.09-.18.03-.37.07-.55.1-.08.02-.17.03-.25.05-.19.04-.38.08-.56.11-.22.04-.43.09-.65.14-.19.04-.38.08-.57.12-.16.04-.33.07-.49.11-.15.03-.29.07-.44.1-.18.04-.37.09-.56.13-.22.05-.45.11-.67.17-.5.13-.99.27-1.49.41-.18.05-.35.1-.53.15-.03,0-.05.02-.08.02-.05.01-.1.03-.14.04-.11.03-.22.06-.33.1-.11.03-.22.07-.33.1-.02,0-.05.01-.07.02,0,0,0,0,0,0,0,0,0,0-.01,0-.29.09-.58.18-.86.27,0,0-.02,0-.03,0-.05.02-.1.03-.15.05-.17.06-.34.11-.51.17-.07.03-.14.05-.21.07-.01,0-.02,0-.04.01l-.38.13c-.09.03-.18.06-.27.09-.04.01-.07.03-.11.04-.06.02-.12.04-.19.07-.09.03-.17.06-.26.09-.01,0-.02,0-.04.01-.16.06-.33.12-.49.18-1.66.61-3.31,1.28-4.94,2.02-.46.2-.91.41-1.36.63-.13.06-.26.12-.39.19-.08.04-.16.08-.24.12-.05.02-.1.05-.15.08-.22.11-.44.22-.66.33-.17.09-.34.17-.5.26-.08.04-.16.08-.24.12-.11.06-.23.12-.34.18-.11.06-.23.12-.34.18h0s0,0,0,0c-.19.1-.39.21-.58.32-.92.51-1.82,1.04-2.72,1.59-.21.13-.42.26-.63.39-.08.05-.17.1-.25.16-.14.09-.29.18-.43.27-.09.06-.18.12-.27.17-.14.09-.28.18-.42.27,0,0,0,0-.01,0-.14.09-.28.19-.42.28-.13.08-.26.17-.39.26-.13.09-.26.17-.39.26-.05.03-.1.06-.14.1-.16.11-.32.22-.48.33-.02.01-.04.03-.07.04-.12.08-.24.17-.37.25,0,0-.02.01-.03.02-.22.15-.43.3-.64.45-.08.06-.16.11-.24.17-.2.14-.39.28-.59.42-.42.32-.84.64-1.25.96,0,0,0,0-.01,0-.11.08-.22.17-.32.25-.17.14-.35.27-.52.41-.19.15-.38.31-.57.46-.09.07-.18.15-.27.22-.09.08-.18.15-.27.22-.07.05-.13.11-.19.16-.15.12-.29.25-.44.37-.05.04-.1.08-.15.12,0,0-.01,0-.02.01-.01,0-.02.02-.03.03-.12.1-.25.21-.37.32t0,0s-.02.02-.03.03c-.15.13-.3.25-.44.38,0,0,0,0-.01.01,0,0,0,0-.01.01-.21.19-.42.37-.63.56-.03.02-.06.05-.08.08,0,0-.01.01-.02.01,0,0-.01.01-.02.01-.17.15-.34.31-.51.46-.04.04-.09.08-.13.12-.21.19-.41.38-.62.57-.18.17-.36.33-.53.5-.07.06-.14.13-.2.19-.16.15-.32.3-.47.46-.05.04-.09.09-.14.14-.02.02-.05.04-.07.07,0,0,0,0-.01.01-.18.18-.36.35-.53.53-.22.21-.43.43-.64.64-.15.15-.3.3-.44.45-.01.01-.02.03-.04.04-.02.02-.04.04-.06.06-.05.05-.1.1-.15.15-.18.19-.36.37-.54.56-.01.02-.03.03-.05.05-.32.34-.64.67-.95,1.01-.04.05-.08.11-.12.16h11.52c.73-.99,1.49-1.96,2.28-2.91.43-.51.86-1.02,1.3-1.52.33-.38.67-.75,1-1.12.28-.31.57-.61.86-.91.29-.3.58-.6.88-.89.47-.47.95-.94,1.44-1.4.43-.4.86-.8,1.3-1.18,2.59-2.17,5.31-4.23,8.26-5.95.18-.1.37-.21.55-.31.12-.07.24-.14.36-.2.05-.03.1-.06.15-.09.1-.05.19-.1.28-.16.07-.04.15-.08.22-.12.09-.05.17-.1.26-.14.05-.03.1-.05.15-.08.11-.06.22-.11.33-.17.05-.03.1-.05.15-.08.11-.06.23-.12.34-.17.04-.02.08-.04.13-.06.09-.04.17-.09.25-.13.1-.05.19-.1.28-.14.04-.02.08-.04.11-.06.12-.06.24-.12.36-.18,0,0,.01,0,.02,0,.73-.35,1.47-.69,2.21-1.02.04-.02.08-.03.12-.05.04-.02.09-.04.13-.06.23-.1.47-.2.71-.3.11-.05.23-.1.35-.14.11-.05.23-.1.35-.14.12-.05.25-.1.37-.15.37-.15.74-.29,1.12-.43.28-.1.57-.2.85-.3.1-.03.19-.06.28-.1,1.26-.42,2.53-.8,3.82-1.14.07-.02.15-.04.23-.06.21-.06.43-.11.64-.16.08-.02.16-.04.24-.06.1-.02.21-.05.31-.08.19-.05.38-.09.57-.13.1-.03.19-.04.29-.07h0c.09-.02.18-.04.27-.06.11-.02.22-.05.32-.07l.29-.06s.07-.02.11-.02c0,0,.01,0,.02,0,.04,0,.09-.02.13-.03.12-.02.23-.05.35-.07.09-.02.19-.04.29-.06.1-.02.2-.04.3-.06.12-.02.25-.05.37-.07.06-.01.13-.02.19-.03.14-.02.28-.05.43-.07.32-.06.65-.11.97-.17,2-.32,4.02-.55,6.05-.68.35-.02.69-.04,1.04-.06.38-.02.77-.04,1.15-.05.18,0,.36-.01.54-.02.04,0,.09,0,.13,0,.13,0,.26,0,.4-.01.1,0,.21,0,.31,0,.35,0,.7,0,1.06,0,.13,0,.27,0,.4,0,.08,0,.15,0,.23,0,.1,0,.19,0,.29,0,.09,0,.19,0,.28,0,.11,0,.22,0,.33,0,.05,0,.09,0,.14,0,.11,0,.22,0,.33,0,.25,0,.51.01.76.02.09,0,.17,0,.26,0,.08,0,.16,0,.24,0,.08,0,.15,0,.23,0,.07,0,.13,0,.2,0,.11,0,.22.01.33.02.13,0,.26.01.39.02.14,0,.28.01.42.02.13,0,.27.02.4.03h0c.13,0,.25.02.38.03.15,0,.3.02.45.03.13,0,.25.02.38.03.34.03.68.06,1.02.09.07,0,.14.01.21.02.11.01.22.02.34.03.21.02.41.04.62.07.04,0,.08,0,.12.01.24.02.47.05.71.08.12.02.25.03.38.05.11.01.22.03.33.04.43.06.86.12,1.3.18.17.02.33.05.5.08.24.04.48.08.71.12.29.05.58.1.87.15.1.02.2.04.31.06.1.02.2.04.31.06.1.02.2.04.3.06.1.02.2.04.31.06.31.06.61.12.91.19.1.02.2.05.31.07.1.02.2.04.3.07.36.08.73.17,1.09.26.07.02.14.03.21.05.07.02.14.03.21.05.4.1.81.21,1.21.31.2.05.4.11.6.17-5.41-1.64-10.99-2.71-16.64-3.29-2.58-.25-5.17-.38-7.78-.38s-5.22.13-7.83.39" class="cls-18"></path>
    </clipPath>
    <linearGradient gradientUnits="userSpaceOnUse" gradientTransform="translate(101842.42 42531.02) scale(79.7 -79.7)" y2="532.9" x2="-1276.48" y1="532.9" x1="-1277.48" id="linear-gradient-3">
      <stop stop-color="#aed038" offset="0"></stop>
      <stop stop-color="#aed038" offset=".13"></stop>
      <stop stop-color="#a9cd3b" offset=".14"></stop>
      <stop stop-color="#6eaf63" offset=".27"></stop>
      <stop stop-color="#3f9883" offset=".39"></stop>
      <stop stop-color="#1d879a" offset=".5"></stop>
      <stop stop-color="#097ca7" offset=".59"></stop>
      <stop stop-color="#0279ad" offset=".65"></stop>
      <stop stop-color="#0279ad" offset="1"></stop>
    </linearGradient>
    <clipPath id="clippath-14">
      <path d="M66.94,43.14c-.72.06-1.45.13-2.17.22-.6.07-1.2.15-1.8.24-1.9.28-3.79.63-5.68,1.08-.32.08-.64.16-.96.24-.6.16-1.19.32-1.78.5-.49.15-.99.3-1.48.45-1.94.62-3.85,1.34-5.74,2.14-.24.1-.48.21-.72.31-1.17.52-2.31,1.08-3.44,1.68,0,0,0,0,0,0-.4.21-.8.43-1.19.65-1.8,1.01-3.56,2.1-5.28,3.25-2.76,1.94-5.37,4.08-7.82,6.39-.23.22-.46.43-.69.65-2.2,2.12-4.27,4.38-6.21,6.75-.02.02-.03.04-.05.06-.14.17-.27.33-.4.5-.27.33-.53.67-.8,1-.03.04-.06.08-.09.12.31-.34.63-.68.95-1.01.02-.02.03-.03.05-.05.18-.19.36-.38.54-.56.05-.05.1-.1.15-.15.02-.02.04-.04.06-.06.16-.16.32-.33.48-.49.21-.22.43-.43.64-.64.18-.18.36-.36.55-.54.02-.02.05-.04.07-.07.05-.05.09-.09.14-.14.16-.15.31-.31.47-.46.07-.06.14-.13.2-.19.18-.17.36-.34.53-.5.2-.19.41-.38.62-.57.04-.04.09-.08.13-.12.18-.16.35-.32.53-.48,0,0,.01-.01.02-.01.03-.03.06-.05.08-.08.21-.19.42-.37.63-.56,0,0,0,0,.01-.01,0,0,.01,0,.01-.01.16-.14.31-.27.47-.41t0,0c.12-.11.25-.22.37-.32.01-.01.02-.02.03-.03.05-.05.11-.09.16-.14.15-.12.29-.25.44-.37.06-.05.13-.11.19-.16.09-.08.18-.15.27-.22.09-.08.18-.15.27-.22.19-.15.38-.31.57-.46.17-.14.34-.28.52-.41.11-.09.22-.17.32-.25,0,0,0,0,.01,0,.41-.33.83-.65,1.25-.96.27-.2.55-.39.83-.58.21-.15.43-.3.64-.45.15-.11.31-.21.46-.31.16-.11.32-.22.48-.33.05-.03.1-.07.14-.1.26-.18.52-.35.78-.52.14-.09.28-.18.42-.28,0,0,0,0,.01,0,.14-.09.28-.18.42-.27.09-.06.18-.12.27-.17.14-.09.29-.18.43-.27.08-.05.17-.1.25-.16.21-.13.42-.26.63-.39.9-.55,1.81-1.08,2.72-1.59.19-.11.39-.22.58-.32h0c.11-.06.23-.12.34-.18.11-.06.23-.12.34-.18.08-.04.16-.08.24-.12.17-.09.33-.17.5-.26.22-.11.44-.22.66-.33.05-.03.1-.05.15-.08.08-.04.16-.08.24-.12.13-.06.26-.13.39-.19.45-.21.91-.42,1.36-.63,1.63-.73,3.28-1.41,4.94-2.02.18-.06.35-.13.53-.19.09-.03.17-.06.26-.09.06-.02.12-.04.19-.07.04-.01.07-.03.11-.04.09-.03.18-.06.27-.09l.38-.13s.03,0,.04-.01c.07-.02.14-.05.21-.07.17-.06.34-.11.51-.17.05-.01.1-.03.15-.05,0,0,.02,0,.03,0,.29-.09.57-.18.86-.27,0,0,0,0,.01,0,0,0,0,0,0,0,.02,0,.05-.01.07-.02.22-.07.43-.13.65-.2.05-.01.1-.03.14-.04.2-.06.4-.12.61-.18.5-.15.99-.28,1.49-.41.22-.06.45-.11.67-.17.19-.04.37-.09.56-.13.15-.04.3-.07.44-.1.16-.04.33-.08.49-.11.19-.04.38-.08.57-.12.22-.05.43-.09.65-.14.19-.04.37-.08.56-.11.08-.02.17-.03.25-.05.18-.03.36-.07.55-.1.21-.04.41-.08.62-.11.21-.04.41-.07.62-.11.18-.03.36-.06.55-.09.18-.03.37-.06.55-.09.18-.03.36-.05.55-.08.36-.06.73-.1,1.09-.15.07,0,.14-.02.22-.03h0s0,0,0,0c.16-.02.32-.04.48-.06.16-.02.32-.04.49-.06.16-.02.32-.04.49-.05.16-.02.32-.03.49-.05,5.22-.53,10.45-.52,15.6-.01,5.65.58,11.23,1.65,16.64,3.29h0c.07.02.14.04.21.06-.07-.03-.14-.06-.21-.09-.4-.16-.8-.32-1.2-.48-3.92-1.5-7.99-2.63-12.15-3.42-.41-.08-.82-.15-1.22-.22-2.09-.36-4.19-.64-6.3-.84-2.14-.19-4.3-.3-6.46-.3-1.97,0-3.95.08-5.93.25" class="cls-18"></path>
    </clipPath>
    <linearGradient gradientUnits="userSpaceOnUse" gradientTransform="translate(83151.31 34817.4) scale(65.27 -65.27)" y2="532.6" x2="-1272.7" y1="532.6" x1="-1273.7" id="linear-gradient-4">
      <stop stop-color="#0279ad" offset="0"></stop>
      <stop stop-color="#0279ad" offset=".05"></stop>
      <stop stop-color="#389488" offset=".28"></stop>
      <stop stop-color="#8cbf4e" offset=".66"></stop>
      <stop stop-color="#aed038" offset=".83"></stop>
      <stop stop-color="#aed038" offset="1"></stop>
    </linearGradient>
    <clipPath id="clippath-15">
      <path d="M49.02,0C45.95,0,42.94.28,40.03.82c-2.67.49-5.26,1.21-7.76,2.11t0,0h0c-1.27.46-2.52.98-3.74,1.54-2.89,1.33-5.63,2.94-8.19,4.79-3.4,2.46-6.47,5.34-9.13,8.56-.73,1.12-1.41,2.29-2.02,3.5-1.85,3.64-3.13,7.62-3.71,11.82-.03.2-.05.39-.08.59-.08.64-.14,1.29-.19,1.94-.06.89-.09,1.79-.09,2.69,0,4.73.87,9.26,2.47,13.44.01.03.02.05.03.08,1.62,4.22,3.99,8.07,6.93,11.4.06.07.12.13.17.2-.15-.36-.3-.73-.44-1.09-1.6-4.15-2.47-8.65-2.47-13.36,0-.89.03-1.78.09-2.66.06-.84.15-1.67.26-2.5h0c.49-3.56,1.49-6.96,2.92-10.13,1.62-3.6,3.8-6.9,6.43-9.78.08-.08.15-.17.23-.25,1.91-2.06,4.05-3.9,6.38-5.48.06-.04.13-.09.19-.13,0,0,0,0,0,0h0c.99-.67,2.02-1.28,3.07-1.85,0,0,0,0,0,0,1.46-.87,2.97-1.66,4.53-2.38,1.23-.57,2.49-1.09,3.78-1.56h0s0,0,0,0c5.28-1.92,10.99-2.97,16.94-2.97,4,0,7.89.47,11.61,1.37,6.81,1.63,13.06,4.67,18.45,8.79.45.35.9.7,1.34,1.06.46.38.92.77,1.37,1.16,0,0,0,0,0,0,.01.01.03.02.04.04.24.21.48.42.71.64-.34-.52-.68-1.03-1.04-1.54-.34-.49-.69-.96-1.05-1.43-2.33-3.08-5.03-5.87-8.01-8.32-.43-.36-.87-.7-1.32-1.04C70.5,3.74,60.2,0,49.02,0Z" class="cls-18"></path>
    </clipPath>
    <linearGradient gradientUnits="userSpaceOnUse" gradientTransform="translate(108823.41 45915.69) scale(85.06 -85.06)" y2="539.44" x2="-1278.34" y1="539.44" x1="-1279.34" id="linear-gradient-5">
      <stop stop-color="#680fd2" offset="0"></stop>
      <stop stop-color="#680fd2" offset=".02"></stop>
      <stop stop-color="#7014c7" offset=".07"></stop>
      <stop stop-color="#9c328b" offset=".31"></stop>
      <stop stop-color="#bf495c" offset=".53"></stop>
      <stop stop-color="#d85a3a" offset=".73"></stop>
      <stop stop-color="#e86525" offset=".89"></stop>
      <stop stop-color="#ee691e" offset="1"></stop>
    </linearGradient>
    <clipPath id="clippath-16">
      <path d="M49.02,0C45.95,0,42.94.28,40.03.82c-2.67.49-5.26,1.21-7.76,2.11t0,0h0c-1.27.46-2.52.98-3.74,1.54-2.89,1.33-5.63,2.94-8.19,4.79-3.4,2.46-6.47,5.34-9.13,8.56-.73,1.12-1.41,2.29-2.02,3.5-1.85,3.64-3.13,7.62-3.71,11.82-.03.2-.05.39-.08.59-.08.64-.14,1.29-.19,1.94-.06.89-.09,1.79-.09,2.69,0,4.73.87,9.26,2.47,13.44.01.03.02.05.03.08,1.62,4.22,3.99,8.07,6.93,11.4.06.07.12.13.17.2-.15-.36-.3-.73-.44-1.09-1.6-4.15-2.47-8.65-2.47-13.36,0-.89.03-1.78.09-2.66.06-.84.15-1.67.26-2.5h0c.49-3.56,1.49-6.96,2.92-10.13,1.62-3.6,3.8-6.9,6.43-9.78.08-.08.15-.17.23-.25,1.91-2.06,4.05-3.9,6.38-5.48.06-.04.13-.09.19-.13,0,0,0,0,0,0h0c.99-.67,2.02-1.28,3.07-1.85,0,0,0,0,0,0,1.46-.87,2.97-1.66,4.53-2.38,1.23-.57,2.49-1.09,3.78-1.56h0s0,0,0,0c5.28-1.92,10.99-2.97,16.94-2.97,4,0,7.89.47,11.61,1.37,6.81,1.63,13.06,4.67,18.45,8.79.45.35.9.7,1.34,1.06.46.38.92.77,1.37,1.16,0,0,0,0,0,0,.01.01.03.02.04.04.24.21.48.42.71.64-.34-.52-.68-1.03-1.04-1.54-.34-.49-.69-.96-1.05-1.43-2.33-3.08-5.03-5.87-8.01-8.32-.43-.36-.87-.7-1.32-1.04C70.5,3.74,60.2,0,49.02,0Z" class="cls-18"></path>
    </clipPath>
    <linearGradient gradientUnits="userSpaceOnUse" gradientTransform="translate(47190.89 20087) scale(37.51 -37.51)" y2="534.7" x2="-1257.14" y1="534.7" x1="-1258.14" id="linear-gradient-6">
      <stop stop-color="#fff" offset="0"></stop>
      <stop stop-color="#f6f6f6" offset=".03"></stop>
      <stop stop-color="#8e8e8e" offset=".39"></stop>
      <stop stop-color="#414141" offset=".69"></stop>
      <stop stop-color="#121212" offset=".9"></stop>
      <stop stop-color="#000" offset="1"></stop>
    </linearGradient>
    <mask maskUnits="userSpaceOnUse" height="112.9" width="121.94" y="-24.72" x="-13.33" id="mask">
      <rect transform="translate(-7.41 16.05) rotate(-17.77)" height="86.4" width="100.37" y="-11.46" x="-2.54" class="cls-36"></rect>
    </mask>
    <linearGradient gradientUnits="userSpaceOnUse" gradientTransform="translate(47190.89 20087) scale(37.51 -37.51)" y2="534.7" x2="-1257.14" y1="534.7" x1="-1258.14" id="linear-gradient-7">
      <stop stop-color="#34037a" offset="0"></stop>
      <stop stop-color="#5f1a64" offset=".21"></stop>
      <stop stop-color="#ab443e" offset=".59"></stop>
      <stop stop-color="#db5e27" offset=".86"></stop>
      <stop stop-color="#ee691e" offset="1"></stop>
    </linearGradient>
    <clipPath id="clippath-17">
      <path d="M67.84,83.76h0c-.08.05-.15.09-.22.14l.22-.14ZM12.82,82.06c3.12,3.41,6.71,6.39,10.68,8.81,2.18,1.33,4.47,2.5,6.86,3.48,5.75,2.37,12.06,3.68,18.66,3.68,4.91,0,9.65-.72,14.12-2.07,4.2-1.26,8.15-3.07,11.79-5.34l-.53-.89-2.65-4.51-2.48-4.23-.32-.55c-.85.54-1.72,1.04-2.61,1.51-.01,0-.03.02-.04.02h0c-.11.06-.23.12-.34.18-.07.04-.14.07-.21.11-.08.04-.17.09-.25.13-.06.03-.13.07-.19.1-.08.04-.16.08-.23.12-.03.02-.07.03-.1.05-.18.09-.36.18-.54.27-.09.05-.19.09-.29.14-.05.03-.11.05-.16.08-.04.02-.08.04-.12.06-.03.01-.06.03-.09.04-.1.05-.2.09-.3.14-.1.05-.2.09-.3.14-.03.01-.07.03-.1.04-.04.02-.08.04-.12.05-.03.01-.06.03-.1.04,0,0-.01,0-.02,0-.03.02-.07.03-.11.05-.09.04-.17.08-.26.12-.02,0-.04.02-.06.02-.05.02-.1.04-.16.07-.05.02-.11.05-.16.07,0,0,0,0-.01,0,0,0,0,0-.01,0-.11.05-.23.1-.35.15-.05.02-.1.04-.16.06-.04.02-.08.03-.12.05-.07.03-.13.05-.2.08-.02,0-.04.02-.07.03-.08.03-.16.06-.24.09-.02,0-.05.02-.07.03-.06.02-.12.05-.18.07-.03.01-.06.02-.09.03-.11.04-.23.09-.34.13,0,0-.01,0-.02,0-.05.02-.09.03-.14.05-.02,0-.03.02-.05.02-.05.02-.1.04-.16.06,0,0,0,0-.01,0-.12.04-.24.09-.37.13-.09.03-.17.06-.26.09-.04.01-.07.03-.11.04-.12.04-.24.08-.36.12-.05.02-.1.03-.16.05-.15.05-.29.1-.44.15-.01,0-.02,0-.03,0-.09.03-.18.06-.26.09,0,0-.02,0-.02,0-.19.06-.39.12-.58.18-.02,0-.04.01-.06.02-.11.03-.23.07-.34.1-.09.03-.17.05-.26.08-.19.06-.38.11-.57.16-.12.03-.23.07-.35.1h-.02c-.13.04-.27.08-.4.11-.02,0-.04.01-.06.02-.21.06-.42.11-.63.16,0,0,0,0,0,0-.11.03-.23.06-.34.08-.11.03-.23.05-.34.08-.23.05-.45.1-.68.15-.02,0-.04,0-.06.01,0,0-.02,0-.02,0-.04,0-.07.02-.11.02-.14.03-.27.06-.41.09-.05.01-.1.02-.15.03-.15.03-.29.06-.44.08-.06.01-.12.02-.18.03-.06.01-.12.02-.17.03-.5.09-.99.18-1.5.25-.1.02-.2.03-.31.05-.07.01-.14.02-.21.03-.17.02-.34.05-.51.07-.17.02-.34.04-.51.06-.19.02-.39.05-.58.07s-.39.04-.58.06c-.14.01-.29.03-.43.04-.12,0-.23.02-.35.03-.03,0-.06,0-.08,0-.03,0-.06,0-.08,0-.05,0-.11,0-.16.01-.05,0-.09,0-.14.01-.08,0-.17.01-.25.02-.03,0-.07,0-.1,0-.07,0-.15,0-.22.01-.08,0-.16,0-.24.01-.12,0-.23.01-.35.02-.22.01-.45.02-.67.03-.22,0-.45.01-.67.02-.17,0-.33,0-.5,0-.17,0-.33,0-.5,0-4,0-7.89-.47-11.61-1.37-.16-.04-.31-.08-.47-.11-.17-.04-.35-.09-.52-.13-.05-.01-.1-.03-.15-.04-.05-.01-.1-.03-.15-.04-.19-.05-.38-.1-.57-.15,0,0,0,0-.01,0-.09-.02-.19-.05-.28-.08-.14-.04-.28-.08-.42-.12-.14-.04-.28-.08-.42-.13s-.28-.09-.42-.13c-.14-.04-.28-.09-.42-.13-.1-.03-.2-.07-.3-.1-.1-.03-.2-.07-.3-.1-.08-.03-.17-.06-.25-.09-.23-.08-.46-.16-.7-.25-.19-.07-.38-.14-.57-.21-.01,0-.02,0-.04-.01-.22-.08-.43-.17-.65-.25-.21-.08-.43-.17-.64-.26-5.14-2.12-9.84-5.07-13.94-8.7-1.81-1.6-3.51-3.33-5.07-5.18,2.08,4.3,4.77,8.25,7.95,11.74" class="cls-18"></path>
    </clipPath>
    <linearGradient gradientUnits="userSpaceOnUse" gradientTransform="translate(89418.61 37959.15) scale(70.07 -70.07)" y2="540.54" x2="-1275.09" y1="540.54" x1="-1276.09" id="linear-gradient-8">
      <stop stop-color="#ee691e" offset="0"></stop>
      <stop stop-color="#ee691e" offset=".14"></stop>
      <stop stop-color="#e86525" offset=".23"></stop>
      <stop stop-color="#d85a3a" offset=".36"></stop>
      <stop stop-color="#bf495c" offset=".52"></stop>
      <stop stop-color="#9c328b" offset=".7"></stop>
      <stop stop-color="#7014c7" offset=".9"></stop>
      <stop stop-color="#680fd2" offset=".93"></stop>
      <stop stop-color="#680fd2" offset="1"></stop>
    </linearGradient>
    <clipPath id="clippath-18">
      <path d="M55.9,9.33c-.17,0-.34,0-.52.01-.18,0-.37.01-.55.02-.09,0-.19,0-.28.01-.14,0-.28.01-.41.02-.06,0-.11,0-.16,0-.06,0-.11,0-.17.01-.16,0-.32.02-.48.03-.18.01-.37.03-.55.04-.15.01-.31.02-.47.04-.15.01-.3.03-.45.04-.26.03-.52.05-.79.08-.51.06-1.01.12-1.52.19-.2.03-.4.06-.59.09-.31.05-.62.1-.92.15-.88.16-1.76.33-2.62.53-.01,0-.02,0-.04,0-.23.05-.46.11-.69.17-.2.05-.41.1-.61.16-.09.02-.18.04-.27.07-.39.1-.77.21-1.15.32-.08.02-.17.05-.25.07-.2.06-.4.12-.6.18-.24.07-.47.15-.71.23-.2.06-.4.13-.6.2-.27.09-.53.18-.8.28h0c-1.29.47-2.55.99-3.78,1.56-.2.09-.4.19-.6.28-.09.04-.19.09-.28.14-.16.08-.33.16-.49.24-.14.07-.27.13-.4.2-.13.07-.27.14-.4.21-.12.06-.23.12-.34.18-.68.36-1.35.74-2.01,1.13,1.05-.57,2.14-1.09,3.25-1.55,2.55-1.07,5.24-1.86,8.03-2.34h0c1.15-.2,2.32-.34,3.5-.43.93-.07,1.88-.11,2.83-.11.66,0,1.31.02,1.96.05.5.03.99.06,1.48.11,4.03.37,7.88,1.38,11.44,2.94,3.23,1.41,6.23,3.27,8.91,5.5.54.45,1.07.91,1.58,1.39,2.7,2.51,5.02,5.42,6.88,8.64.5.86.96,1.74,1.39,2.64h12.73c-.96-2.81-2.18-5.5-3.61-8.05h0c-.5-.9-1.04-1.78-1.59-2.64-.24-.22-.47-.43-.71-.64-.01-.01-.03-.02-.04-.04h0c-.45-.4-.9-.79-1.37-1.17-.44-.36-.88-.71-1.33-1.06-5.39-4.12-11.65-7.15-18.45-8.79-.43-.1-.85-.2-1.28-.29-.12-.03-.23-.05-.35-.07-.01,0-.02,0-.03,0-.01,0-.03,0-.04,0-.18-.04-.35-.07-.53-.11-.62-.12-1.24-.22-1.86-.32-.2-.03-.41-.06-.61-.09-.21-.03-.41-.06-.62-.08-.2-.03-.41-.05-.61-.07-.02,0-.04,0-.06,0-.17-.02-.35-.04-.52-.06-.27-.03-.54-.06-.81-.08-.19-.02-.38-.03-.58-.05-.22-.02-.44-.03-.66-.04-.09,0-.18-.01-.27-.02-.12,0-.25-.01-.37-.02-.12,0-.24-.01-.36-.02-.1,0-.21,0-.31-.01-.12,0-.24,0-.36-.01-.15,0-.3,0-.45,0-.31,0-.61-.01-.92-.01-.25,0-.5,0-.75,0" class="cls-18"></path>
    </clipPath>
    <linearGradient gradientUnits="userSpaceOnUse" gradientTransform="translate(-25052.78 57321.06) rotate(90) scale(44.82 -44.82)" y2="560.39" x2="-1277.77" y1="560.39" x1="-1278.77" id="linear-gradient-9">
      <stop stop-color="#680fd2" offset="0"></stop>
      <stop stop-color="#680fd2" offset=".1"></stop>
      <stop stop-color="#7014c7" offset=".14"></stop>
      <stop stop-color="#9c328b" offset=".37"></stop>
      <stop stop-color="#bf495c" offset=".57"></stop>
      <stop stop-color="#d85a3a" offset=".75"></stop>
      <stop stop-color="#e86525" offset=".9"></stop>
      <stop stop-color="#ee691e" offset="1"></stop>
    </linearGradient>
    <clipPath id="clippath-19">
      <path d="M55.9,9.33c-.17,0-.34,0-.52.01-.18,0-.37.01-.55.02-.09,0-.19,0-.28.01-.14,0-.28.01-.41.02-.06,0-.11,0-.16,0-.06,0-.11,0-.17.01-.16,0-.32.02-.48.03-.18.01-.37.03-.55.04-.15.01-.31.02-.47.04-.15.01-.3.03-.45.04-.26.03-.52.05-.79.08-.51.06-1.01.12-1.52.19-.2.03-.4.06-.59.09-.31.05-.62.1-.92.15-.88.16-1.76.33-2.62.53-.01,0-.02,0-.04,0-.23.05-.46.11-.69.17-.2.05-.41.1-.61.16-.09.02-.18.04-.27.07-.39.1-.77.21-1.15.32-.08.02-.17.05-.25.07-.2.06-.4.12-.6.18-.24.07-.47.15-.71.23-.2.06-.4.13-.6.2-.27.09-.53.18-.8.28h0c-1.29.47-2.55.99-3.78,1.56-.2.09-.4.19-.6.28-.09.04-.19.09-.28.14-.16.08-.33.16-.49.24-.14.07-.27.13-.4.2-.13.07-.27.14-.4.21-.12.06-.23.12-.34.18-.68.36-1.35.74-2.01,1.13,1.05-.57,2.14-1.09,3.25-1.55,2.55-1.07,5.24-1.86,8.03-2.34h0c1.15-.2,2.32-.34,3.5-.43.93-.07,1.88-.11,2.83-.11.66,0,1.31.02,1.96.05.5.03.99.06,1.48.11,4.03.37,7.88,1.38,11.44,2.94,3.23,1.41,6.23,3.27,8.91,5.5.54.45,1.07.91,1.58,1.39,2.7,2.51,5.02,5.42,6.88,8.64.5.86.96,1.74,1.39,2.64h12.73c-.96-2.81-2.18-5.5-3.61-8.05h0c-.5-.9-1.04-1.78-1.59-2.64-.24-.22-.47-.43-.71-.64-.01-.01-.03-.02-.04-.04h0c-.45-.4-.9-.79-1.37-1.17-.44-.36-.88-.71-1.33-1.06-5.39-4.12-11.65-7.15-18.45-8.79-.43-.1-.85-.2-1.28-.29-.12-.03-.23-.05-.35-.07-.01,0-.02,0-.03,0-.01,0-.03,0-.04,0-.18-.04-.35-.07-.53-.11-.62-.12-1.24-.22-1.86-.32-.2-.03-.41-.06-.61-.09-.21-.03-.41-.06-.62-.08-.2-.03-.41-.05-.61-.07-.02,0-.04,0-.06,0-.17-.02-.35-.04-.52-.06-.27-.03-.54-.06-.81-.08-.19-.02-.38-.03-.58-.05-.22-.02-.44-.03-.66-.04-.09,0-.18-.01-.27-.02-.12,0-.25-.01-.37-.02-.12,0-.24-.01-.36-.02-.1,0-.21,0-.31-.01-.12,0-.24,0-.36-.01-.15,0-.3,0-.45,0-.31,0-.61-.01-.92-.01-.25,0-.5,0-.75,0" class="cls-18"></path>
    </clipPath>
    <linearGradient gradientUnits="userSpaceOnUse" gradientTransform="translate(-58411.78 -25211.11) rotate(-180) scale(44.82 -44.82)" y2="562.97" x2="-1303.95" y1="562.97" x1="-1304.95" id="linear-gradient-10">
      <stop stop-color="#fff" offset="0"></stop>
      <stop stop-color="#fff" offset="0"></stop>
      <stop stop-color="#dfdfdf" offset=".06"></stop>
      <stop stop-color="#ababab" offset=".16"></stop>
      <stop stop-color="#7d7d7d" offset=".27"></stop>
      <stop stop-color="#575757" offset=".37"></stop>
      <stop stop-color="#373737" offset=".48"></stop>
      <stop stop-color="#1e1e1e" offset=".6"></stop>
      <stop stop-color="#0d0d0d" offset=".72"></stop>
      <stop stop-color="#030303" offset=".85"></stop>
      <stop stop-color="#000" offset="1"></stop>
    </linearGradient>
    <mask maskUnits="userSpaceOnUse" height="26.65" width="65.06" y="7.87" x="30.86" id="mask-1">
      <rect transform="translate(40.76 84.09) rotate(-88.7)" height="64.5" width="25.19" y="-11.06" x="50.79" class="cls-11"></rect>
    </mask>
    <linearGradient gradientUnits="userSpaceOnUse" gradientTransform="translate(-58411.77 -25211.11) rotate(-180) scale(44.82 -44.82)" y2="562.97" x2="-1303.95" y1="562.97" x1="-1304.95" id="linear-gradient-11">
      <stop stop-color="#34037a" offset="0"></stop>
      <stop stop-color="#34037a" offset="0"></stop>
      <stop stop-color="#420b72" offset=".04"></stop>
      <stop stop-color="#6f235c" offset=".16"></stop>
      <stop stop-color="#963949" offset=".28"></stop>
      <stop stop-color="#b64a39" offset=".41"></stop>
      <stop stop-color="#ce572d" offset=".54"></stop>
      <stop stop-color="#e06124" offset=".68"></stop>
      <stop stop-color="#ea671f" offset=".82"></stop>
      <stop stop-color="#ee691e" offset="1"></stop>
    </linearGradient>
    <clipPath id="clippath-20">
      <path d="M5.18,27.06h0C1.91,33.57.05,40.91,0,48.68c0,.12,0,.25,0,.37,0,.1,0,.19,0,.29.04,6.76,1.45,13.19,3.97,19.03l.04.08c.27.62.55,1.24.84,1.85,0,0,0,0,0,0,0,0,0,.02.01.03,1.56,1.85,3.26,3.58,5.07,5.18,4.1,3.62,8.8,6.58,13.94,8.7,2.34.96,4.76,1.75,7.26,2.35,3.72.89,7.61,1.37,11.61,1.37,8.53,0,16.55-2.15,23.56-5.95-.91.48-1.83.92-2.78,1.32-3.84,1.63-8.01,2.63-12.39,2.87-.24.01-.49.02-.73.03-.46.02-.92.03-1.39.03-4.47,0-8.75-.79-12.72-2.23-5.09-1.85-9.66-4.78-13.43-8.51-.6-.59-1.18-1.2-1.74-1.84-2.65-3-4.83-6.44-6.41-10.18-.06-.07-.12-.13-.17-.2-2.94-3.33-5.3-7.18-6.93-11.4,0-.03-.02-.05-.03-.08-1.59-4.17-2.47-8.7-2.47-13.44,0-.9.03-1.8.09-2.69.06-.85.15-1.69.26-2.53.78-5.59,2.78-10.79,5.73-15.32-2.34,2.83-4.36,5.92-6.02,9.23" class="cls-18"></path>
    </clipPath>
    <linearGradient gradientUnits="userSpaceOnUse" gradientTransform="translate(-36730.19 86164.48) rotate(90) scale(66.31 -66.31)" y2="554.46" x2="-1298" y1="554.46" x1="-1299" id="linear-gradient-12">
      <stop stop-color="#ee691e" offset="0"></stop>
      <stop stop-color="#ee691e" offset=".18"></stop>
      <stop stop-color="#cd524a" offset=".33"></stop>
      <stop stop-color="#7a1bb9" offset=".67"></stop>
      <stop stop-color="#680fd2" offset=".74"></stop>
      <stop stop-color="#680fd2" offset="1"></stop>
    </linearGradient>
    <clipPath id="clippath-21">
      <path d="M5.18,27.06h0C1.91,33.57.05,40.91,0,48.68c0,.12,0,.25,0,.37,0,.1,0,.19,0,.29.04,6.76,1.45,13.19,3.97,19.03l.04.08c.27.62.55,1.24.84,1.85,0,0,0,0,0,0,0,0,0,.02.01.03,1.56,1.85,3.26,3.58,5.07,5.18,4.1,3.62,8.8,6.58,13.94,8.7,2.34.96,4.76,1.75,7.26,2.35,3.72.89,7.61,1.37,11.61,1.37,8.53,0,16.55-2.15,23.56-5.95-.91.48-1.83.92-2.78,1.32-3.84,1.63-8.01,2.63-12.39,2.87-.24.01-.49.02-.73.03-.46.02-.92.03-1.39.03-4.47,0-8.75-.79-12.72-2.23-5.09-1.85-9.66-4.78-13.43-8.51-.6-.59-1.18-1.2-1.74-1.84-2.65-3-4.83-6.44-6.41-10.18-.06-.07-.12-.13-.17-.2-2.94-3.33-5.3-7.18-6.93-11.4,0-.03-.02-.05-.03-.08-1.59-4.17-2.47-8.7-2.47-13.44,0-.9.03-1.8.09-2.69.06-.85.15-1.69.26-2.53.78-5.59,2.78-10.79,5.73-15.32-2.34,2.83-4.36,5.92-6.02,9.23" class="cls-18"></path>
    </clipPath>
    <linearGradient gradientUnits="userSpaceOnUse" gradientTransform="translate(-86267.08 -36652.29) rotate(-180) scale(66.31 -66.31)" y2="553.58" x2="-1300.85" y1="553.58" x1="-1301.85" id="linear-gradient-13">
      <stop stop-color="#000" offset="0"></stop>
      <stop stop-color="#000" offset=".42"></stop>
      <stop stop-color="#050505" offset=".47"></stop>
      <stop stop-color="#131313" offset=".52"></stop>
      <stop stop-color="#2b2b2b" offset=".58"></stop>
      <stop stop-color="#4d4d4d" offset=".64"></stop>
      <stop stop-color="#787878" offset=".7"></stop>
      <stop stop-color="#aeaeae" offset=".76"></stop>
      <stop stop-color="#ebebeb" offset=".83"></stop>
      <stop stop-color="#fff" offset=".84"></stop>
      <stop stop-color="#fff" offset="1"></stop>
    </linearGradient>
    <mask maskUnits="userSpaceOnUse" height="74.95" width="71.43" y="15.4" x="-2.56" id="mask-2">
      <rect transform="translate(-20.9 84.07) rotate(-87.9)" height="68.83" width="72.48" y="18.46" x="-3.09" class="cls-1"></rect>
    </mask>
    <linearGradient gradientUnits="userSpaceOnUse" gradientTransform="translate(-86267.09 -36652.29) rotate(-180) scale(66.31 -66.31)" y2="553.58" x2="-1300.85" y1="553.58" x1="-1301.85" id="linear-gradient-14">
      <stop stop-color="#ee691e" offset="0"></stop>
      <stop stop-color="#ee691e" offset=".42"></stop>
      <stop stop-color="#e86620" offset=".48"></stop>
      <stop stop-color="#da5e27" offset=".54"></stop>
      <stop stop-color="#c25133" offset=".61"></stop>
      <stop stop-color="#a03e44" offset=".68"></stop>
      <stop stop-color="#752659" offset=".75"></stop>
      <stop stop-color="#400a73" offset=".83"></stop>
      <stop stop-color="#34037a" offset=".84"></stop>
      <stop stop-color="#34037a" offset="1"></stop>
    </linearGradient>
  </defs>
  <g id="Layer_1-2">
    <g>
      <g>
        <path d="M122.47,25.32c-2.61,1.01-4.89,2.49-6.82,4.45-1.94,1.96-3.46,4.35-4.58,7.17-1.12,2.82-1.67,6.06-1.67,9.73s.48,6.91,1.45,9.73c.97,2.82,2.36,5.21,4.17,7.17,1.81,1.96,4.02,3.44,6.63,4.45,2.61,1.01,5.56,1.52,8.84,1.52,1.68,0,3.26-.1,4.74-.28s2.8-.44,3.98-.76c1.18-.32,2.2-.64,3.06-.98.86-.34,1.55-.67,2.05-1.01l-2.15-6.51c-.97.5-2.34,1.04-4.1,1.61-1.77.57-4.06.85-6.88.85-2.36,0-4.38-.39-6.06-1.17-1.68-.78-3.07-1.87-4.17-3.28-1.1-1.41-1.91-3.08-2.43-5.02-.53-1.94-.79-4.06-.79-6.38,0-2.61.34-4.9,1.01-6.88.68-1.98,1.61-3.62,2.81-4.93,1.2-1.31,2.62-2.28,4.26-2.94,1.64-.65,3.41-.98,5.31-.98,2.19,0,4.22.28,6.09.85,1.87.57,3.32,1.17,4.33,1.8l2.34-6.5c-.3-.17-.8-.44-1.52-.82-.72-.38-1.62-.74-2.72-1.07-1.09-.34-2.38-.64-3.85-.91-1.47-.27-3.12-.41-4.93-.41-2.99,0-5.79.51-8.4,1.52" class="cls-15"></path>
        <g class="cls-41">
          <rect height="45.72" width="34.92" y="23.81" x="109.4" class="cls-15"></rect>
        </g>
      </g>
      <g>
        <path d="M158.47,19.58l-7.64,1.26v38.02c0,1.64.18,3.11.54,4.39.36,1.28.98,2.36,1.86,3.22.88.86,2.07,1.53,3.57,1.99,1.49.46,3.38.72,5.65.76l1.07-6.31c-1.01-.13-1.84-.3-2.5-.54-.65-.23-1.17-.57-1.55-1.01-.38-.44-.64-.98-.79-1.61-.15-.63-.22-1.41-.22-2.34V19.58Z" class="cls-15"></path>
        <g class="cls-22">
          <rect height="49.64" width="12.69" y="19.58" x="150.83" class="cls-15"></rect>
        </g>
      </g>
      <g>
        <path d="M177.83,59.93c-1.41-1.94-2.12-4.57-2.12-7.89s.71-5.88,2.12-7.8c1.41-1.91,3.38-2.87,5.9-2.87s4.5.96,5.91,2.87c1.41,1.92,2.12,4.52,2.12,7.8s-.71,5.96-2.12,7.89c-1.41,1.94-3.38,2.9-5.91,2.9s-4.49-.97-5.9-2.9M177.35,35.97c-1.94.82-3.61,1.99-5.02,3.51-1.41,1.52-2.5,3.34-3.28,5.46-.78,2.13-1.17,4.5-1.17,7.11s.39,4.99,1.17,7.14c.78,2.15,1.86,3.98,3.25,5.49,1.39,1.52,3.05,2.69,4.99,3.54,1.94.84,4.08,1.26,6.44,1.26s4.52-.42,6.47-1.26,3.63-2.02,5.02-3.54c1.39-1.52,2.46-3.35,3.22-5.49.76-2.15,1.14-4.52,1.14-7.14s-.39-4.98-1.17-7.11c-.78-2.12-1.86-3.95-3.25-5.46-1.39-1.52-3.06-2.69-5.02-3.51-1.96-.82-4.09-1.23-6.41-1.23s-4.44.41-6.38,1.23" class="cls-15"></path>
        <g class="cls-38">
          <rect height="34.74" width="31.7" y="34.73" x="167.88" class="cls-15"></rect>
        </g>
      </g>
      <g>
        <path d="M226.93,35.55v26.72c-.5.13-1.27.23-2.31.32-1.03.08-2.01.13-2.94.13-2.57,0-4.37-.76-5.4-2.27-1.03-1.51-1.55-4.04-1.55-7.58v-17.31h-7.64v18.5c0,2.23.23,4.28.69,6.16.46,1.87,1.23,3.48,2.31,4.83,1.08,1.35,2.51,2.4,4.29,3.16,1.79.76,4.01,1.14,6.66,1.14,2.82,0,5.41-.2,7.77-.6,2.36-.4,4.27-.79,5.75-1.17v-32.02h-7.64Z" class="cls-15"></path>
        <g class="cls-28">
          <rect height="33.79" width="27.47" y="35.55" x="207.1" class="cls-15"></rect>
        </g>
      </g>
      <g>
        <path d="M252.69,59.9c-1.6-1.92-2.4-4.56-2.4-7.93s.64-5.81,1.93-7.7c1.28-1.9,3.32-2.84,6.09-2.84,1.26,0,2.45.2,3.57.6,1.12.4,2.01.83,2.68,1.3v18.95c-.55.13-1.25.24-2.12.35-.86.11-1.9.16-3.13.16-2.82,0-5.03-.96-6.63-2.87M272.21,19.58l-7.64,1.26v15.85c-.88-.46-1.94-.89-3.16-1.26-1.22-.38-2.63-.57-4.23-.57-2.36,0-4.44.41-6.25,1.23-1.81.82-3.35,1.99-4.61,3.51s-2.22,3.34-2.87,5.46c-.65,2.13-.98,4.5-.98,7.11s.39,5.04,1.17,7.17c.78,2.13,1.9,3.94,3.35,5.43,1.45,1.5,3.21,2.64,5.27,3.44,2.06.8,4.4,1.2,7.01,1.2s4.94-.19,7.23-.57c2.3-.38,4.2-.8,5.72-1.26V19.58Z" class="cls-15"></path>
        <g class="cls-8">
          <rect height="49.83" width="29.75" y="19.58" x="242.46" class="cls-15"></rect>
        </g>
      </g>
      <g>
        <path d="M288.94,62.17c-1.14-.69-1.71-1.95-1.71-3.76,0-.93.21-1.69.63-2.31.42-.61.98-1.08,1.67-1.42.69-.34,1.47-.57,2.34-.69.86-.13,1.72-.19,2.56-.19.97,0,1.85.06,2.65.19.8.13,1.41.25,1.83.38v8.46c-1.22.25-3.01.38-5.37.38-1.94,0-3.47-.35-4.61-1.04M286.99,35.24c-1.85.34-3.26.67-4.23,1.01l.95,6.19c.93-.34,2.13-.63,3.6-.88,1.47-.25,3.09-.38,4.86-.38,1.3,0,2.39.17,3.25.51.86.34,1.56.81,2.08,1.42.53.61.89,1.32,1.11,2.12.21.8.32,1.64.32,2.53v1.26c-1.05-.25-2.04-.43-2.97-.54-.93-.1-1.81-.16-2.65-.16-1.81,0-3.55.18-5.21.54-1.66.36-3.13.95-4.39,1.77-1.26.82-2.26,1.88-3,3.19-.74,1.31-1.11,2.91-1.11,4.8s.33,3.64.98,4.99c.65,1.35,1.56,2.44,2.71,3.28,1.16.84,2.56,1.45,4.2,1.83,1.64.38,3.45.57,5.43.57,2.99,0,5.67-.18,8.05-.54,2.38-.36,4.16-.66,5.34-.92v-20.02c0-1.94-.22-3.72-.66-5.34-.44-1.62-1.18-3-2.21-4.14-1.03-1.14-2.41-2.02-4.14-2.65-1.73-.63-3.85-.95-6.38-.95-2.1,0-4.08.17-5.94.51" class="cls-15"></path>
        <g class="cls-24">
          <rect height="34.55" width="26.71" y="34.73" x="279.6" class="cls-15"></rect>
        </g>
      </g>
      <g>
        <path d="M321.41,35.43c-2.36.38-4.27.78-5.75,1.2v31.96h7.64v-26.65c.51-.08,1.28-.19,2.34-.31,1.05-.13,2.06-.19,3.03-.19,1.31,0,2.41.18,3.32.54.9.36,1.62.93,2.15,1.71.53.78.91,1.79,1.14,3.03.23,1.24.35,2.75.35,4.52v17.37h7.64v-18.57c0-2.23-.22-4.28-.66-6.16-.44-1.87-1.2-3.47-2.27-4.8-1.07-1.33-2.52-2.36-4.32-3.09-1.81-.74-4.07-1.11-6.76-1.11-2.86,0-5.47.19-7.83.57" class="cls-15"></path>
        <g class="cls-3">
          <rect height="33.72" width="27.6" y="34.86" x="315.66" class="cls-15"></rect>
        </g>
      </g>
      <g>
        <path d="M360.72,58.32c-1.41-1.49-2.12-3.86-2.12-7.11,0-2.99.74-5.4,2.21-7.23,1.47-1.83,3.6-2.75,6.38-2.75,1.22,0,2.23.05,3.03.16.8.1,1.47.22,2.02.35v17.11c-.67.46-1.55.86-2.62,1.2-1.07.34-2.22.5-3.44.5-2.23,0-4.05-.75-5.46-2.24M360.25,36.06c-2.02.8-3.74,1.92-5.15,3.35-1.41,1.43-2.48,3.16-3.22,5.18-.74,2.02-1.11,4.23-1.11,6.63,0,2.57.35,4.83,1.04,6.79.7,1.96,1.66,3.59,2.9,4.89,1.24,1.31,2.74,2.3,4.49,2.97,1.75.67,3.67,1.01,5.78,1.01,1.6,0,3.02-.19,4.26-.57,1.24-.38,2.24-.76,3-1.14v1.26c0,2.48-.65,4.36-1.96,5.62-1.3,1.26-3.49,1.89-6.57,1.89-1.94,0-3.74-.17-5.4-.51-1.66-.34-3.15-.78-4.45-1.33l-1.39,6.51c1.56.55,3.29.99,5.21,1.32,1.92.34,3.88.51,5.9.51,5.52,0,9.61-1.22,12.28-3.66,2.67-2.44,4.01-6.3,4.01-11.56v-28.61c-1.56-.42-3.45-.82-5.69-1.2-2.23-.38-4.59-.57-7.07-.57s-4.86.4-6.88,1.2" class="cls-15"></path>
        <g class="cls-4">
          <rect height="45.6" width="29.12" y="34.86" x="350.77" class="cls-15"></rect>
        </g>
      </g>
      <g>
        <path d="M397.13,19.58l-7.64,1.26v38.02c0,1.64.18,3.11.54,4.39.36,1.28.98,2.36,1.86,3.22.88.86,2.07,1.53,3.57,1.99,1.49.46,3.38.72,5.65.76l1.07-6.31c-1.01-.13-1.84-.3-2.49-.54-.65-.23-1.17-.57-1.55-1.01s-.64-.98-.79-1.61c-.15-.63-.22-1.41-.22-2.34V19.58Z" class="cls-15"></path>
        <g class="cls-26">
          <rect height="49.64" width="12.69" y="19.58" x="389.49" class="cls-15"></rect>
        </g>
      </g>
      <g>
        <path d="M415.19,45.97c.34-.92.81-1.75,1.42-2.46.61-.72,1.36-1.3,2.24-1.74.88-.44,1.92-.66,3.1-.66s2.12.2,2.94.6c.82.4,1.52.95,2.08,1.64.57.69,1,1.51,1.29,2.46.29.95.44,1.95.44,3h-14.21c.13-.97.36-1.92.7-2.84M416.2,35.84c-1.85.74-3.5,1.83-4.93,3.28-1.43,1.45-2.58,3.27-3.44,5.46-.86,2.19-1.3,4.74-1.3,7.64,0,2.48.34,4.77,1.01,6.85s1.71,3.9,3.1,5.43c1.39,1.54,3.16,2.74,5.3,3.6,2.15.86,4.67,1.3,7.58,1.3,1.14,0,2.25-.06,3.35-.19,1.09-.13,2.12-.28,3.06-.47.95-.19,1.79-.4,2.52-.63.74-.23,1.32-.45,1.74-.66l-1.01-6.25c-.88.38-2.09.74-3.63,1.07-1.54.34-3.23.5-5.08.5-3.16,0-5.57-.73-7.23-2.18-1.66-1.45-2.6-3.51-2.81-6.16h21.79c.04-.42.07-.89.1-1.42.02-.53.03-1,.03-1.42,0-5.6-1.27-9.81-3.82-12.63-2.55-2.82-6.1-4.23-10.64-4.23-1.94,0-3.83.37-5.68,1.11" class="cls-15"></path>
        <g class="cls-13">
          <rect height="34.67" width="29.81" y="34.73" x="406.54" class="cls-15"></rect>
        </g>
      </g>
      <g>
        <path d="M445.95,37.35c-2.23,1.75-3.35,4.14-3.35,7.17,0,1.56.24,2.87.73,3.95.48,1.07,1.15,1.99,1.99,2.75.84.76,1.84,1.42,3,1.99,1.16.57,2.43,1.1,3.82,1.61,2.27.84,3.9,1.62,4.89,2.34.99.72,1.48,1.62,1.48,2.72,0,1.18-.46,2.01-1.39,2.49-.93.49-2.4.73-4.42.73s-3.82-.21-5.4-.63c-1.58-.42-2.94-.86-4.07-1.33l-1.33,6.38c.71.29,1.96.68,3.73,1.17,1.77.48,4.11.73,7.01.73,4.34,0,7.67-.81,10.01-2.43,2.34-1.62,3.51-4.01,3.51-7.17,0-1.47-.19-2.74-.57-3.79-.38-1.05-.98-1.99-1.8-2.81-.82-.82-1.86-1.56-3.12-2.21-1.26-.65-2.8-1.32-4.61-1.99-1.1-.38-2.02-.75-2.78-1.11-.76-.36-1.37-.71-1.83-1.07-.46-.36-.79-.75-.98-1.17-.19-.42-.28-.9-.28-1.45,0-1.1.48-1.9,1.45-2.43.97-.53,2.23-.79,3.79-.79,1.73,0,3.24.16,4.55.47,1.3.32,2.38.66,3.22,1.04l1.39-6.19c-.88-.34-2.21-.68-3.98-1.04-1.77-.36-3.62-.54-5.56-.54-3.83,0-6.86.88-9.09,2.62" class="cls-15"></path>
        <g class="cls-14">
          <rect height="34.67" width="24.25" y="34.73" x="441.9" class="cls-15"></rect>
        </g>
      </g>
    </g>
    <g>
      <g class="cls-17">
        <rect height="41.85" width="41.24" y="46.93" x="55.73" class="cls-40"></rect>
      </g>
      <g class="cls-29">
        <rect height="49.58" width="43.63" y="17.25" x="20.07" class="cls-9"></rect>
      </g>
      <g class="cls-39">
        <rect transform="translate(-17.62 28.51) rotate(-23.29)" height="54.51" width="83.11" y="29.76" x="18.81" class="cls-21"></rect>
      </g>
      <g class="cls-31">
        <rect transform="translate(-17.24 28.44) rotate(-23.24)" height="55.83" width="83.77" y="28.22" x="18.64" class="cls-19"></rect>
      </g>
      <g class="cls-6">
        <rect height="63.47" width="85.06" y="0" x="5.11" class="cls-23"></rect>
      </g>
      <g class="cls-37">
        <g class="cls-16">
          <rect transform="translate(-7.41 16.05) rotate(-17.77)" height="86.4" width="100.37" y="-11.46" x="-2.54" class="cls-32"></rect>
        </g>
      </g>
      <g class="cls-5">
        <rect height="27.71" width="70.07" y="70.33" x="4.86" class="cls-27"></rect>
      </g>
      <g class="cls-7">
        <rect transform="translate(6.3 55.95) rotate(-49.82)" height="64.2" width="59.42" y="-10.91" x="33.68" class="cls-34"></rect>
      </g>
      <g class="cls-33">
        <g class="cls-10">
          <rect transform="translate(40.76 84.09) rotate(-88.7)" height="64.5" width="25.19" y="-11.06" x="50.79" class="cls-35"></rect>
        </g>
      </g>
      <g class="cls-25">
        <rect transform="translate(-5.49 3.87) rotate(-6.17)" height="76.83" width="73.46" y="14.46" x="-3.58" class="cls-12"></rect>
      </g>
      <g class="cls-2">
        <g class="cls-20">
          <rect transform="translate(-20.9 84.07) rotate(-87.9)" height="68.83" width="72.48" y="18.46" x="-3.09" class="cls-30"></rect>
        </g>
      </g>
      <rect height="98.03" width="100.42" class="cls-18"></rect>
    </g>
  </g>
</svg>